<svg xmlns="http://www.w3.org/2000/svg" viewBox="0 0 270 48" fill="none">
  <!-- Leaf mark -->
  <g transform="translate(2, 6.7) scale(1.077)">
    <path d="M16 4C9 4 4 10 4 18c0 2 .5 4 1.5 5.5C7 22 9 20 12 18c-1 4-1 8 0 12 0 0 4-3 6-8 2 5 6 8 6 8 1-4 1-8 0-12 3 2 5 4 6.5 2.5C31.5 22 32 20 32 18 32 10 27 4 20 4h-4z" fill="#22c55e"/>
  </g>

  <text font-family="system-ui, -apple-system, BlinkMacSystemFont, 'Segoe UI', sans-serif" font-size="28" x="40" y="36">
    <tspan font-weight="900" fill="#1e293b">G&#xe4;rtner</tspan><tspan font-weight="900" fill="#22c55e">job</tspan><tspan font-weight="400" font-size="22" fill="#94a3b8">.ch</tspan>
  </text>
</svg>
