<svg xmlns="http://www.w3.org/2000/svg" viewBox="0 0 240 48" fill="none">
  <!-- Leaf mark -->
  <g transform="translate(2, 6.7) scale(1.077)">
    <path d="M16 4C9 4 4 10 4 18c0 2 .5 4 1.5 5.5C7 22 9 20 12 18c-1 4-1 8 0 12 0 0 4-3 6-8 2 5 6 8 6 8 1-4 1-8 0-12 3 2 5 4 6.5 2.5C31.5 22 32 20 32 18 32 10 27 4 20 4h-4z" fill="#22c55e"/>
  </g>

  <!-- "Gärtnerjob.ch" wordmark — path outlines (Nunito Black + Regular, no external font dependency) -->
  <g transform="translate(36,36)">
    <!-- G -->
    <path d="M0-9c0-7.8 5-13.5 12-13.5 3.4 0 6.2 1.2 8.2 3.4l-2.8 2.8c-1.4-1.4-3.2-2.2-5.2-2.2-4.6 0-7.8 3.6-7.8 9.5s3.2 9.5 7.8 9.5c2.4 0 4.2-.8 5.4-2V-4.5h-6v-3.6H22V0c-2.4 2.8-5.8 4.5-10 4.5C5 4.5 0-1.2 0-9z" fill="#1e293b"/>
    <!-- ä -->
    <path d="M24.5-9.5c0-6 3.6-10 8.4-10 2.4 0 4.4 1 5.8 2.8V-19h4V0h-4v-2.2c-1.4 1.8-3.4 2.8-5.8 2.8-4.8 0-8.4-4-8.4-10.1zm14.2 0c0-3.8-2.2-6.4-5.2-6.4-3 0-5.2 2.6-5.2 6.4 0 3.8 2.2 6.4 5.2 6.4 3 0 5.2-2.6 5.2-6.4zM29-24.5h4v3.2h-4zm6.5 0h4v3.2h-4z" fill="#1e293b"/>
    <!-- r -->
    <path d="M46-16h4v3.2c1.2-2.2 3-3.6 5.4-3.6.6 0 1 .1 1.6.2v3.8c-.6-.2-1.2-.3-1.8-.3-2.8 0-5.2 2.4-5.2 6.4V0h-4z" fill="#1e293b"/>
    <!-- t -->
    <path d="M58-20.5h4v4.5h4v3.4h-4V-4c0 1.4.6 2 1.8 2 .8 0 1.4-.2 2.2-.5V1c-1 .4-2 .6-3.2.6-3.2 0-4.8-1.6-4.8-5.2v-9h-2.5V-16H58z" fill="#1e293b"/>
    <!-- n -->
    <path d="M68-16h4v2.6c1.4-2 3.4-3.2 6-3.2 4 0 6.4 2.6 6.4 7V0h-4v-8.6c0-2.8-1.4-4.2-3.8-4.2-2.6 0-4.6 2-4.6 5V0h-4z" fill="#1e293b"/>
    <!-- e -->
    <path d="M87.5-9.5c0-5.8 3.8-10 8.8-10 5.2 0 8.4 4 8.4 10.4v1.2H91.5c.3 3.2 2.5 5 5.4 5 2 0 3.6-.8 4.8-2.2l2.4 2.4c-1.8 2.2-4.4 3.4-7.6 3.4-5.4 0-9-3.8-9-10.2zm4-1.5h9.6c-.3-3-2.2-5-4.6-5-2.6 0-4.5 2-5 5z" fill="#1e293b"/>
    <!-- r -->
    <path d="M107.5-16h4v3.2c1.2-2.2 3-3.6 5.4-3.6.6 0 1 .1 1.6.2v3.8c-.6-.2-1.2-.3-1.8-.3-2.8 0-5.2 2.4-5.2 6.4V0h-4z" fill="#1e293b"/>
    <!-- j -->
    <path d="M121-16h4.2v17.5c0 4.2-2.2 6.5-5.8 6.5-1.2 0-2.2-.2-3-.5V4.2c.5.2 1 .3 1.6.3 1.6 0 3-.8 3-3.2zm0-6.5h4.2v4H121z" fill="#22c55e"/>
    <!-- o -->
    <path d="M128.5-9.5c0-5.8 4-10.2 9.2-10.2 5.2 0 9.2 4.4 9.2 10.2 0 5.8-4 10.2-9.2 10.2-5.2 0-9.2-4.4-9.2-10.2zm14.2 0c0-3.8-2.2-6.6-5-6.6-2.8 0-5 2.8-5 6.6s2.2 6.6 5 6.6c2.8 0 5-2.8 5-6.6z" fill="#22c55e"/>
    <!-- b -->
    <path d="M149-22h4v9c1.4-2.2 3.6-3.6 6.2-3.6 4.8 0 8 4.2 8 10 0 5.8-3.2 10.2-8 10.2-2.6 0-4.8-1.4-6.2-3.6V0h-4zm9 18.6c-3 0-5-2.8-5-6.4 0-3.6 2-6.4 5-6.4 3 0 5 2.8 5 6.4 0 3.6-2 6.4-5 6.4z" fill="#22c55e"/>
    <!-- . -->
    <path d="M170.5-4.2h4.5V0h-4.5z" fill="#94a3b8"/>
    <!-- c -->
    <path d="M178.5-9c0-5 3.4-8.6 7.8-8.6 2.4 0 4.2 1 5.4 2.6l-2 2.2c-.8-1-1.8-1.6-3.2-1.6-2.6 0-4.6 2.2-4.6 5.4 0 3.2 2 5.4 4.6 5.4 1.4 0 2.4-.6 3.2-1.6l2 2.2c-1.2 1.6-3 2.6-5.4 2.6-4.4 0-7.8-3.6-7.8-8.6z" fill="#94a3b8"/>
    <!-- h -->
    <path d="M193.5-18.5h3.5v8.2c1.2-1.8 3-3 5.2-3 3.4 0 5.4 2.2 5.4 6V0h-3.5v-6.6c0-2.4-1.2-3.8-3.2-3.8-2.2 0-3.9 1.8-3.9 4.4V0h-3.5z" fill="#94a3b8"/>
  </g>
</svg>
